<svg xmlns="http://www.w3.org/2000/svg" viewBox="0 0 26.25 34.67"><defs><style>.cls-1{fill:#ff0;}.cls-2{fill:#fff;}</style></defs><title>dogUnderwater</title><g id="Layer_2" data-name="Layer 2"><g id="Layer_2-2" data-name="Layer 2"><path class="cls-1" d="M8.51,27.73,5.78,27.3,7.66,30.6l3.53,3.95-4.51.12L4.25,31.16l-.12-4.51L1.81,24.46,0,18.44,2.54,20,3,18.16,1.55,15.9,2,14.07l1.41,2.26.92.21,1.55-.67,2.1,2.74L7.72,21l2.43.33L7.25,17.68l3.28,1.06L8,13.41l1.69.81,3,3.72a8.91,8.91,0,0,1,3.12,1.54c.94.93,2.43-.19,2.43-.19l-.76-4.12,2.06-1.31s.38,3,1.31,2.06,4.68.93,4.68.93L26.25,21l-4.2,5s-2.16-1.81-2.12-2.08a3.67,3.67,0,0,1,2-2.72l-4.3,3.94Z"/><path class="cls-2" d="M21.82,5c0,.55-.67,1-1.5,1s-1.5-.45-1.5-1,.67-1,1.5-1S21.82,4.45,21.82,5Zm-.67-1c-.37,0-.67.18-.67.4s.3.4.67.4.67-.18.67-.4S21.52,4,21.15,4Z"/><circle class="cls-2" cx="16.32" cy="13.5" r="0.5"/><circle class="cls-2" cx="10.32" cy="2.5" r="0.5"/><ellipse class="cls-2" cx="17.82" cy="10.5" rx="1" ry="0.5"/><ellipse class="cls-2" cx="13.82" cy="8" rx="2" ry="1"/><ellipse class="cls-2" cx="15.82" cy="4.5" rx="1" ry="0.5"/><path class="cls-2" d="M15.82,1c0,.55-.9,1-2,1s-2-.45-2-1,.9-1,2-1S15.82.45,15.82,1Zm-1,0c-.55,0-1,.22-1,.5s.45.5,1,.5,1-.22,1-.5S15.37,1,14.82,1Z"/></g></g></svg>