<svg xmlns="http://www.w3.org/2000/svg" viewBox="0 0 84.19 64.69"><defs><style>.cls-1{fill:#ff0;}</style></defs><title>schoolingFish</title><g id="Layer_2" data-name="Layer 2"><g id="Layer_2-2" data-name="Layer 2"><path class="cls-1" d="M47.37,10.33s3.61-1.78,6-1a6.1,6.1,0,0,1,2.86,2.23A.92.92,0,0,1,55.68,13a14,14,0,0,1-3.84.35,43.66,43.66,0,0,1-4.76-1.47l-2.82.14,1.23-2L44.4,7.74Z"/><path class="cls-1" d="M52.68,18.15s2.94-1.15,4.76-.37a4.78,4.78,0,0,1,2.09,1.93.72.72,0,0,1-.53,1.1,11,11,0,0,1-3,0,34.22,34.22,0,0,1-3.62-1.46l-2.21-.07,1.09-1.45-.71-1.92Z"/><path class="cls-1" d="M39.69,30s3.61-1.78,6-1a6.1,6.1,0,0,1,2.86,2.23A.92.92,0,0,1,48,32.69a14,14,0,0,1-3.84.35,43.66,43.66,0,0,1-4.76-1.47l-2.82.14,1.23-2-1.11-2.37Z"/><path class="cls-1" d="M45,37.79s2.94-1.15,4.76-.37a4.78,4.78,0,0,1,2.09,1.93.72.72,0,0,1-.53,1.1,11,11,0,0,1-3,0A34.22,34.22,0,0,1,44.68,39l-2.21-.07,1.09-1.45-.71-1.92Z"/><path class="cls-1" d="M46.84,21.68s3.33-2.26,5.82-1.8A6.1,6.1,0,0,1,55.8,21.7a.92.92,0,0,1-.35,1.52,14,14,0,0,1-3.75.88,43.66,43.66,0,0,1-4.91-.8L44,23.83,45,21.72l-1.42-2.2Z"/><path class="cls-1" d="M54,28.29s3.51-2,5.95-1.31a6.1,6.1,0,0,1,3,2.07.92.92,0,0,1-.48,1.49,14,14,0,0,1-3.81.57,43.66,43.66,0,0,1-4.83-1.2l-2.8.3,1.12-2-1.24-2.31Z"/><path class="cls-1" d="M67.49,32.46s3.42-.74,5.27.44a5.3,5.3,0,0,1,1.95,2.48.8.8,0,0,1-.78,1.12A12.15,12.15,0,0,1,70.62,36a37.94,37.94,0,0,1-3.7-2.23l-2.4-.47L66,31.89l-.44-2.23Z"/><path class="cls-1" d="M61.24,34.82s3.17-1.48,5.24-.74a5.3,5.3,0,0,1,2.44,2,.8.8,0,0,1-.51,1.26,12.15,12.15,0,0,1-3.34.24A37.94,37.94,0,0,1,61,36.2l-2.45.07,1.11-1.68-.92-2.08Z"/><path class="cls-1" d="M66.4,15.91s3.79-2.54,6.6-2A6.91,6.91,0,0,1,76.55,16a1,1,0,0,1-.41,1.72,15.84,15.84,0,0,1-4.25,1,49.45,49.45,0,0,1-5.56-.93l-3.14.58,1.09-2.39-1.6-2.5Z"/><path class="cls-1" d="M75.19,22.63s3.45-1.95,5.85-1.29a6,6,0,0,1,2.93,2,.91.91,0,0,1-.47,1.47,13.76,13.76,0,0,1-3.75.56A43,43,0,0,1,75,24.22l-2.76.29,1.1-2-1.22-2.27Z"/><path class="cls-1" d="M66.43,41.48s3.28-1.21,5.28-.3A5.3,5.3,0,0,1,74,43.37a.8.8,0,0,1-.62,1.21,12.15,12.15,0,0,1-3.35,0,37.94,37.94,0,0,1-4-1.7l-2.45-.13,1.24-1.58L64.1,39Z"/><path class="cls-1" d="M75.75,61.49S79,60.28,81,61.19a5.3,5.3,0,0,1,2.27,2.19.8.8,0,0,1-.62,1.21,12.15,12.15,0,0,1-3.35,0,37.94,37.94,0,0,1-4-1.7l-2.45-.13,1.24-1.58L73.41,59Z"/><path class="cls-1" d="M22.9,18s2.51,0,3.64,1.07a3.81,3.81,0,0,1,1,2,.58.58,0,0,1-.71.67,8.72,8.72,0,0,1-2.25-.84,27.24,27.24,0,0,1-2.28-2.11l-1.62-.68,1.22-.77,0-1.63Z"/><path class="cls-1" d="M2.21,2.26s2.51,0,3.64,1.07a3.81,3.81,0,0,1,1,2A.58.58,0,0,1,6.15,6,8.72,8.72,0,0,1,3.9,5.2,27.24,27.24,0,0,1,1.62,3.09L0,2.4l1.22-.77L1.24,0Z"/><path class="cls-1" d="M17.55,19s3.12-.74,4.84.31a4.86,4.86,0,0,1,1.82,2.24.73.73,0,0,1-.69,1,11.13,11.13,0,0,1-3-.41,34.75,34.75,0,0,1-3.43-2l-2.21-.39,1.31-1.3-.44-2Z"/><path class="cls-1" d="M21,25.92s3.17-.47,4.79.71A4.86,4.86,0,0,1,27.39,29a.73.73,0,0,1-.78,1,11.13,11.13,0,0,1-3-.66,34.75,34.75,0,0,1-3.25-2.26l-2.17-.57,1.41-1.19-.27-2.07Z"/><path class="cls-1" d="M29.85,32.86s2.75.42,3.8,1.82a4.22,4.22,0,0,1,.74,2.4.64.64,0,0,1-.9.61,9.67,9.67,0,0,1-2.32-1.31,30.2,30.2,0,0,1-2.12-2.71l-1.65-1L28.87,32l.31-1.78Z"/><path class="cls-1" d="M24.53,32.84s2.78-.2,4.1.94a4.22,4.22,0,0,1,1.25,2.17.64.64,0,0,1-.74.79A9.67,9.67,0,0,1,26.6,36a30.2,30.2,0,0,1-2.66-2.18l-1.84-.64,1.3-.94L23.3,30.4Z"/><path class="cls-1" d="M33.74,20.24s3.54-.81,5.47.39a5.5,5.5,0,0,1,2,2.55.83.83,0,0,1-.79,1.17A12.61,12.61,0,0,1,37,23.86a39.36,39.36,0,0,1-3.87-2.27l-2.5-.46,1.49-1.47-.48-2.31Z"/><path class="cls-1" d="M26.5,39.26s2.78,0,4,1.28a4.22,4.22,0,0,1,1.07,2.27.64.64,0,0,1-.8.73,9.67,9.67,0,0,1-2.48-1,30.2,30.2,0,0,1-2.47-2.39L24,39.37l1.37-.82.06-1.81Z"/></g></g></svg>