<svg xmlns="http://www.w3.org/2000/svg" viewBox="0 0 27.22 22.97"><defs><style>.cls-1{fill:#fff;}.cls-2{fill:#fcee21;}</style></defs><title>shell</title><g id="Layer_2" data-name="Layer 2"><g id="Layer_2-2" data-name="Layer 2"><path class="cls-1" d="M13.62,6.25,14,.63c.42-.22.71-.71,1.48-.62s1.23.9,1.9,1.36L15.5,8.09l2.61-6.45c.7,0,1.63-.25,2.13,0,.65.38.82,1.18,1.14,1.79l0,0-3.1,6.61,3.68-6c.54.25,1.88.28,2.35.65s.28.93.28,1.56L20,11.63l4.65-4.4v0C25,7.84,26,7.94,26,8.62c.05.87-.38,1-.4,2.12l-5,4.67,5.25-3.89c.27.43.65.78.48,1.43s-1.08,1-1.52,1.87c-.14.27,0,.58-.15.81-.79,1.35-4.28,2.11-5.32,3.27a11.86,11.86,0,0,0-1.12,2.35,17.21,17.21,0,0,1-4.63.49A17.21,17.21,0,0,1,9,21.26a11.86,11.86,0,0,0-1.12-2.35c-1-1.16-4.53-1.93-5.32-3.27-.14-.23,0-.54-.15-.81C2,14,1,13.5.88,13s.2-1,.48-1.43l5.25,3.89-5-4.67c0-1.12-.45-1.26-.4-2.12,0-.67,1-.77,1.33-1.36v0l4.65,4.4L2.68,6.28c0-.63,0-1.3.28-1.56s1.81-.4,2.35-.65l3.68,6L5.89,3.44l0,0c.32-.61.48-1.41,1.14-1.79.49-.29,1.42,0,2.13,0l2.61,6.45L9.86,1.37c.67-.46,1-1.26,1.9-1.36s1.06.41,1.48.62l.36,5.62"/><path class="cls-1" d="M13.62,20.4c5.12,0,14.06-1,13.55-1.31s-3.59.42-6.76,0a17.23,17.23,0,0,0-2-.78H9a17.23,17.23,0,0,0-2,.78c-3.17.45-6.17-.32-6.76,0S8.58,20.4,13.71,20.4"/><path class="cls-2" d="M13.66,10.88a4.86,4.86,0,1,0,4.86,4.86A4.86,4.86,0,0,0,13.66,10.88Zm1.58,3.58a.8.8,0,1,1,.8-.8A.8.8,0,0,1,15.25,14.46Z"/><path class="cls-1" d="M13.57,23c9.53,0,12.7-2.91,13.6-4.09a.26.26,0,0,0-.21-.42C24.67,18.78,15.53,20,13.57,20h.08c-2,0-11.1-1.22-13.39-1.53a.26.26,0,0,0-.21.42C1,20.07,4.13,23,13.65,23"/></g></g></svg>