<svg xmlns="http://www.w3.org/2000/svg" viewBox="0 0 87.67 102.69"><defs><style>.cls-1{fill:none;stroke:#fff;stroke-miterlimit:10;stroke-width:0.5px;}.cls-2{fill:#ff0;}.cls-3{fill:#fff;}</style></defs><title>dogParachute</title><g id="Layer_2" data-name="Layer 2"><g id="Layer_2-2" data-name="Layer 2"><path class="cls-1" d="M44.33,88.5"/><path class="cls-1" d="M44.33,88.5"/><path class="cls-1" d="M1.33,37.5"/><path class="cls-2" d="M43.83,49c3.6,0,6.3-1.8,8.11-2.7,9.91,2.7,12.31.9,16.81-.9,8.11-.9,10.81-3.6,12.61-6.3,6.3-1.8,6.3-3.6,6.3-5.4,0-7.33-19.81-21.62-19.81-21.62h-48S0,26.36,0,33.69c0,1.8,0,3.6,6.3,5.4,1.8,2.7,4.5,5.4,12.61,6.3,4.5,1.8,6.91,3.6,16.81.9C37.53,47.2,40.23,49,43.83,49Z"/><path class="cls-3" d="M43.83,22.79c3.64,0,11,2,12.8,4.7,10.81-2.7,13.51-.9,21.62,2.7a9.78,9.78,0,0,1,9.42,3.88C87.67,14.67,67.71,0,43.83,0S0,14.67,0,34.07a9.78,9.78,0,0,1,9.42-3.88c8.11-3.6,10.81-5.4,21.62-2.7C32.84,24.78,40.26,22.79,43.83,22.79Z"/><line class="cls-1" x1="6.48" y1="38.85" x2="43.98" y2="88.45"/><line class="cls-1" x1="9.41" y1="29.92" x2="43.98" y2="88.45"/><line class="cls-1" x1="30.75" y1="26.71" x2="43.98" y2="88.45"/><line class="cls-1" x1="35.73" y1="46.3" x2="43.98" y2="88.45"/><line class="cls-1" x1="0.21" y1="33.69" x2="43.98" y2="88.45"/><line class="cls-1" x1="81.14" y1="38.85" x2="43.65" y2="88.45"/><line class="cls-1" x1="78.21" y1="29.92" x2="43.65" y2="88.45"/><line class="cls-1" x1="56.87" y1="26.71" x2="43.65" y2="88.45"/><line class="cls-1" x1="51.9" y1="46.3" x2="43.65" y2="88.45"/><line class="cls-1" x1="87.41" y1="33.69" x2="43.65" y2="88.45"/><path class="cls-2" d="M30.61,88.59A3.9,3.9,0,0,0,33.83,87c.17-.24-1-3-1-3l-6.39,2.69L25.16,91s2.64,3.58,4,3.15.25,2.58.25,2.58L32,96.44l1.28-4.26s2-.34,2.39,1a9.47,9.47,0,0,0,2.2,3l1,5,1.21,1.58.16-6.27L42.83,99l-1-4.89,1,.89,3.48-.85.25,2.58,2.83,2.34L50.83,98h1l2,2V98l-2-2V94l3,1-3.32-5.8-2.92-1.71-1.21-4.64L44,79.8,39.39,81,44,84.25l2.74,3L44,88.73,36.58,87Z"/><rect class="cls-3" x="39.88" y="91" width="6.45" height="1.52" transform="translate(-55.25 116.36) rotate(-78.88)"/></g></g></svg>