<svg xmlns="http://www.w3.org/2000/svg" viewBox="0 0 26.64 31.78"><defs><style>.cls-1{fill:#ff0;}</style></defs><title>flower</title><g id="Layer_2" data-name="Layer 2"><g id="Layer_2-2" data-name="Layer 2"><polygon class="cls-1" points="9.86 11.74 9.29 4.06 17.15 0 9.86 11.74"/><polygon class="cls-1" points="11.34 9.82 16.43 6.99 22.01 11.32 13.84 11.9 19.68 15.82 15.84 16.24 13.51 14.07 14.51 19.74 10.59 17.9 11.34 9.82"/><polygon class="cls-1" points="5.34 10.49 10.09 12.57 5.93 12.99 3.01 10.49 5.34 10.49"/><polygon class="cls-1" points="9.68 13.74 2.51 14.82 7.34 18.4 9.68 16.07 9.68 13.74"/><polygon class="cls-1" points="20.39 5.87 22.64 1.5 26.64 1.5 20.39 5.87"/><polygon class="cls-1" points="7.34 31.78 10.97 27.61 18.14 25.45 7.34 31.78"/><polygon class="cls-1" points="4.84 30.82 0 23.68 7.34 19.97 1.13 27.72 4.84 30.82"/><polygon class="cls-1" points="9.28 19.74 6.88 26.45 6.55 30.59 7.38 29.12 9.28 19.74"/></g></g></svg>